<svg  xmlns="http://www.w3.org/2000/svg" version="1.1" xmlns:xlink="http://www.w3.org/1999/xlink" xmlns:avocode="https://avocode.com/" >

<symbol id="basket" viewBox="0 0 47 44">
<defs></defs><desc>Generated with Avocode.</desc><g><g><title>icon</title><path d="M45.56314,8.27886l-3.76108,15.6804c-0.17872,0.74478 -0.84561,1.27055 -1.6121,1.27055h-20.30307c-0.7208,0 -1.35925,-0.46601 -1.57893,-1.15404l-4.99105,-15.60702c-0.25919,-0.80946 -0.11632,-1.69494 0.38543,-2.38449c0.50184,-0.68577 1.30141,-1.09352 2.1522,-1.09352h27.1174c0.81638,0 1.58733,0.37485 2.09239,1.01485c0.50497,0.64189 0.68915,1.47972 0.4988,2.27329zM46.85006,30.61232c0,1.34203 -1.08647,2.42837 -2.42731,2.42837h-26.18667c-3.0427,0 -5.71498,-1.94648 -6.65,-4.84464l-7.20835,-22.35161c-0.03156,-0.09797 -0.12141,-0.16416 -0.22522,-0.16416h-1.57544c-1.34084,0 -2.42722,-1.08634 -2.42722,-2.42875c0,-1.34052 1.08638,-2.42837 2.42722,-2.42837h1.57544c2.2181,0 4.16574,1.41958 4.84595,3.53173l7.20844,22.35237c0.28449,0.88208 1.10087,1.47631 2.02927,1.47631h26.18667c1.34075,0 2.42722,1.08747 2.42722,2.42875zM23.82777,39.71039c0,2.13939 -1.73342,3.87178 -3.87079,3.87178c-2.13799,0 -3.8707,-1.73239 -3.8707,-3.87178c0,-2.13901 1.73271,-3.87329 3.8707,-3.87329c2.13736,0 3.87079,1.73428 3.87079,3.87329zM44.15739,39.71039c0,2.13939 -1.73306,3.87178 -3.87114,3.87178c-2.13718,0 -3.8707,-1.73239 -3.8707,-3.87178c0,-2.13901 1.73333,-3.87329 3.8707,-3.87329c2.13817,0 3.87114,1.73428 3.87114,3.87329z"></path></g></g>
</symbol>

<symbol id="beet" viewBox="0 0 55 49">
<defs></defs><g><g><title>icon</title><path d="M28.56699,19.55071c-0.06115,0.07678 -0.13545,0.1339 -0.19982,0.20312c0.03701,-0.79357 0.04998,-1.6 0.01931,-2.41513c0.00483,-0.71792 -0.09665,-1.43244 -0.1595,-2.13523c-0.06437,-0.70166 -0.24176,-1.38251 -0.35128,-2.04293c-0.16755,-0.6521 -0.37372,-1.27206 -0.5478,-1.85797c-0.25302,-0.56246 -0.48995,-1.09201 -0.70989,-1.5826c-0.28843,-0.45012 -0.55254,-0.8643 -0.78705,-1.23007c-0.20787,-0.38355 -0.52455,-0.61882 -0.71794,-0.86052c-0.41726,-0.45504 -0.65812,-0.71376 -0.65812,-0.71376c0,0 0.22075,0.27688 0.60582,0.76066c0.17327,0.25192 0.46483,0.5027 0.64284,0.89759c0.20313,0.37598 0.43264,0.8 0.68334,1.26071c0.17801,0.49135 0.37059,1.02393 0.57685,1.58865c0.12571,0.58553 0.2836,1.1983 0.39956,1.83943c0.05794,0.65173 0.18203,1.31404 0.19339,2.00208c0.01287,0.68388 0.05955,1.37759 0.00313,2.07509c-0.02244,0.99215 -0.1401,1.96842 -0.27555,2.92237c-0.53653,-0.42705 -2.01416,-2.10837 -2.66898,-2.83424c-0.72277,-0.82043 -1.43257,-1.77551 -2.01997,-2.80851c-0.61548,-1.0262 -1.06734,-2.14128 -1.41862,-3.2575c-0.70658,-2.24341 -0.74932,-4.51859 -0.58419,-6.46582c0.09182,-0.98875 0.16603,-1.89428 0.13366,-2.6436c-0.0346,-0.34005 -0.04023,-0.70884 -0.08771,-0.92445c-0.04596,-0.22695 -0.07412,-0.34761 -0.07412,-0.34761c0,0 0.11998,-0.03934 0.34484,-0.11537c0.22227,-0.05976 0.6018,-0.17891 1.03122,-0.1634c0.88298,-0.02837 2.14309,0.25835 3.36286,0.91915c1.21728,0.66118 2.37903,1.66922 3.29277,2.86752c0.94244,1.18809 1.61621,2.57892 2.05278,4.00454c0.42218,1.43206 0.61709,2.90535 0.51391,4.32076c-0.07403,1.41088 -0.39625,2.75632 -0.87807,3.91906c-0.498,1.16161 -1.11347,2.13901 -1.71769,2.81797zM23.48965,21.6447c0.01768,-0.09282 0.01294,-0.1849 0.0177,-0.27549c-0.37548,-0.4705 -0.77018,-0.93685 -1.19233,-1.38579c-0.3553,-0.41078 -0.76944,-0.76709 -1.15371,-1.13513c-0.38758,-0.36993 -0.82666,-0.66799 -1.21737,-0.99026c-0.42057,-0.28823 -0.84677,-0.54128 -1.23748,-0.78714c-0.42459,-0.19404 -0.82335,-0.37787 -1.19483,-0.54771c-0.38919,-0.11385 -0.7461,-0.21939 -1.06108,-0.31017c-0.31015,-0.11348 -0.60502,-0.09192 -0.83622,-0.13352c-0.46563,-0.04917 -0.73081,-0.07754 -0.73081,-0.07754c0,0 0.26187,0.04577 0.72277,0.1305c0.22548,0.05825 0.51481,0.05636 0.81289,0.19177c0.3022,0.11348 0.64373,0.24019 1.01674,0.37712c0.34484,0.19177 0.72277,0.39943 1.11821,0.61844c0.36496,0.27083 0.76067,0.54166 1.14575,0.85031c0.35772,0.34156 0.75889,0.65816 1.10847,1.04322c0.34654,0.38582 0.71964,0.75575 1.03462,1.18128c0.48172,0.57759 0.90238,1.19036 1.29873,1.80123c-0.5165,0.02648 -2.19637,-0.19669 -2.93255,-0.28369c-0.81798,-0.10667 -1.69918,-0.29693 -2.54926,-0.59348c-0.86278,-0.27915 -1.67575,-0.68804 -2.43151,-1.14724c-1.52189,-0.92747 -2.6781,-2.20256 -3.55455,-3.39367c-0.44069,-0.60747 -0.84758,-1.1601 -1.23918,-1.57088c-0.18758,-0.17816 -0.37614,-0.38619 -0.5115,-0.48378c-0.14019,-0.10667 -0.21431,-0.16189 -0.21431,-0.16189c0,0 0.04917,-0.08359 0.13858,-0.23943c0.09736,-0.14336 0.25544,-0.39981 0.50676,-0.60445c0.48825,-0.45655 1.35264,-0.92104 2.37581,-1.15253c1.02335,-0.23111 2.18824,-0.23414 3.30493,-0.00643c1.13028,0.20804 2.20424,0.66497 3.16456,1.25844c0.95406,0.60596 1.79672,1.34884 2.44367,2.20861c0.66143,0.83934 1.14718,1.76492 1.45179,2.66743c0.29719,0.91121 0.43264,1.77248 0.42459,2.46052c0.0047,0.0735 -0.0102,0.14365 -0.01203,0.21415c0.46231,0.584 0.87169,1.16006 1.25112,1.7259c0.74369,-0.11234 1.50499,-0.17664 2.27916,-0.17664c0.09361,0 0.18051,0.02043 0.27394,0.02194c0.108,-0.49702 0.2127,-1.00463 0.30622,-1.54099c0.05955,-0.36842 0.32222,-1.26941 0.49469,-1.3844c0.09835,-0.07981 0.17238,-0.17324 0.25767,-0.26099c-0.05472,1.14156 -0.16907,2.22941 -0.30774,3.24426c0.26751,0.01929 0.53832,0.02913 0.80243,0.06241c0.42871,-0.6521 0.91526,-1.33674 1.4568,-2.01759c0.00313,0.09154 0,0.1827 0.016,0.27726c0.04023,0.1513 -0.25776,0.79508 -0.40609,1.03414c-0.16102,0.26213 -0.2996,0.51518 -0.44462,0.76861c5.32052,0.86922 9.70656,4.51594 11.62407,9.40446c-0.35128,-0.23679 -0.69764,-0.46714 -1.03122,-0.68312c-2.6958,-1.75811 -6.03274,-1.89958 -9.83235,-0.37863c-1.31974,0.52993 -2.62007,0.60104 -3.89054,0.21939c-2.4105,-0.73002 -4.79445,-0.79773 -7.04715,-0.80416c-1.50087,0 -2.74336,0.59764 -3.598,1.72747c-0.2152,0.28028 -0.33528,0.61541 -0.35852,0.96c-1.15952,-0.20615 -1.83785,-0.31244 -2.28167,-0.31546l-0.35691,-0.04539c1.72645,-5.10147 6.09398,-8.98119 11.47744,-10.0089c-0.10067,-0.17286 -0.18927,-0.34043 -0.29656,-0.51631c-0.14895,-0.23905 -0.44543,-0.88208 -0.406,-1.03603zM31.51411,19.65472c-0.42209,0.45125 -0.81691,0.91612 -1.19233,1.38667c-0.00331,-0.07073 -0.01618,-0.1426 -0.01305,-0.21522c-0.00644,-0.68955 0.12901,-1.55121 0.42558,-2.46128c0.30604,-0.90326 0.79098,-1.82809 1.45018,-2.66818c0.64757,-0.85976 1.49211,-1.60189 2.44591,-2.20785c0.95871,-0.59537 2.03347,-1.05116 3.16304,-1.2592c1.11991,-0.22733 2.28167,-0.22241 3.30484,0.00643c1.02478,0.23149 1.88532,0.69712 2.37519,1.15253c0.25123,0.20463 0.40609,0.46184 0.50586,0.60558c0.0903,0.1547 0.13858,0.24095 0.13858,0.24095c0,0 -0.07573,0.0556 -0.21592,0.15924c-0.13366,0.0991 -0.32231,0.30752 -0.50926,0.48378c-0.39151,0.41078 -0.80073,0.96341 -1.24061,1.57239c-0.87664,1.19036 -2.03195,2.46544 -3.55455,3.39291c-0.75406,0.45844 -1.57115,0.86884 -2.42999,1.14648c-0.85241,0.29541 -1.73217,0.48643 -2.55221,0.59348c-0.73493,0.08775 -2.41381,0.31092 -2.93273,0.28634c0.39965,-0.61088 0.81861,-1.22629 1.29873,-1.80388c0.31579,-0.42553 0.68969,-0.79735 1.03766,-1.17977c0.34815,-0.38733 0.74762,-0.70241 1.10865,-1.04397c0.38347,-0.30865 0.77668,-0.57948 1.14414,-0.85031c0.39634,-0.21976 0.77337,-0.42742 1.11821,-0.61844c0.3722,-0.13693 0.71374,-0.26629 1.01835,-0.37787c0.29647,-0.13541 0.58642,-0.13352 0.81047,-0.19177c0.46089,-0.08246 0.725,-0.1305 0.725,-0.1305c0,0 -0.26581,0.02799 -0.73144,0.0783c-0.23049,0.04085 -0.52696,0.01929 -0.8364,0.13352c-0.31579,0.09192 -0.6735,0.19745 -1.06341,0.31017c-0.36889,0.17021 -0.76693,0.35291 -1.19224,0.54771c-0.39008,0.24889 -0.81861,0.49778 -1.23757,0.78638c-0.38999,0.32378 -0.82988,0.62147 -1.21817,0.99026c-0.38508,0.36804 -0.80091,0.72586 -1.15049,1.13513zM54.33041,48.27207l-13.54793,0.02723c-2.16731,-3.70913 -5.36585,-5.39613 -9.57781,-5.37684c-2.40093,0.01437 -4.80098,-0.08095 -7.19529,0.02723c-2.11,0.09532 -4.07356,-0.21939 -5.91999,-1.25844c-0.86939,-0.48984 -1.84983,-0.65248 -2.81346,-0.87149c-2.33164,-0.52728 -4.60678,-1.23121 -6.94156,-1.80804c-3.2832,-0.81059 -4.06381,-1.27962 -6.48487,-2.23811c-0.39545,-0.1566 -0.87887,-0.02913 -1.06913,-0.51896c-0.17953,-0.47054 -0.20778,-0.96341 0.13044,-1.36662c0.58579,-0.69598 1.17964,-1.03111 2.23267,-0.96984c0.07734,0.00303 0.17157,0.00303 0.23594,-0.03366c1.89257,-1.06856 1.88944,-0.34345 3.8133,-0.18572l5.41314,0.69333c0.95406,-0.07111 8.10993,1.6643 8.52075,0.84426c-2.21398,0 -4.79454,-1.72747 -4.47938,-2.14279c0.56398,-0.74478 1.35103,-1.0765 2.29847,-1.07348c2.21077,0.00643 4.38845,0.07754 6.55496,0.73154c1.62426,0.49324 3.29518,0.41267 4.98542,-0.2644c2.75695,-1.10374 5.71856,-1.46308 8.31762,0.22733c3.20336,2.08643 6.24231,4.43575 8.56581,7.58772c2.70063,3.67055 4.0057,4.50837 6.96087,7.96975z" ></path></g></g>
</symbol>

<symbol id="glob" viewBox="0 0 54 54">
<g><g><path d="M41.081 37.396c.64.045 1.284.09 1.917.116a18.975 18.975 0 0 1-6.323 5.938 18.948 18.948 0 0 1-8.288 2.518c.299-.58.598-1.174.886-1.777a17.053 17.053 0 0 0 4.427-1.167c.017-.033.032-.058.039-.086.051-.181.213-.366.213-.366l-.084-.21.185-.264s.209-.341.34-.444c.13-.103 1.23-1.053 1.468-1.232.207-.164 1.118-.849 1.517-1.173.055-.044.098-.086.136-.113.261-.236.763-.868.942-1.159.089-.133.226-.47.354-.793.762.084 1.521.156 2.271.212zm-2.271-.212h-.003.003zm-16.263 1.568a.602.602 0 0 1 .018.01l.002.006a1.632 1.632 0 0 1-.015-.009c.002.002.003.004.003.007l.014.006c.046.125.025.342.042.433.027.131.21-.025.342-.025.1 0 .124.078.237.15a.55.55 0 0 0 .128.06c.234.077.287-.079.287-.079l.264.314.21.289-.21.501-.183.183s.03-.236 0-.425c-.028-.181-.183.085-.183.085l-.158.498.574.555.174.156.376.345.025.067.214.617-.03.21.132.345s-.166.071-.316.104a.683.683 0 0 1-.156.026c-.077 0-.169.091-.245.183-.083.099-.148.21-.148.21s.06.117.148.239a.912.912 0 0 0 .193.207c.037.03.07.043.102.07.03.004.056.012.084.015a.226.226 0 0 1-.018.033h.003l-.078.134c-.228.394-.514.88-.844 1.393a19.137 19.137 0 0 1-5.491-1.975c.05 3.444.694 5.677 1.952 6.015 2.383.64 6.248-5.724 9.438-15.03a94.12 94.12 0 0 1-4.087-1.012C10.744 29.739-.288 23.53.71 19.798c.533-1.99 4.374-2.874 10.062-2.674-.066.111-.128.229-.19.34a18.975 18.975 0 0 1 7.042-7.113 18.907 18.907 0 0 1 9.625-2.558c-.115-.002-.233-.006-.352-.005 2.67-5.034 5.36-7.933 7.342-7.4 3.723 1.001 3.57 13.687-.343 28.325-.365 1.387-.76 2.741-1.164 4.055 9.635 1.885 17.058 1.712 17.707-.68.336-1.26-1.273-2.933-4.223-4.699v-.023a19.234 19.234 0 0 1-1.04 5.775c-.61.033-1.169.035-1.622.035-.37 0-.66-.006-.83-.013-.496-.018-.992-.04-1.492-.078.088-.308.167-.534.18-.661.026-.16.115-.407.115-.407l-.586-.135-.068-.384-.247-.044-.227.433s-.178.27-.383.38c-.2.11-.47.134-.47.134l.064-.311c-.108-.047-.336.042-.336.042l-.025-.295s-.134-.295-.246-.314c-.112-.025-.295-.272-.295-.272s-.067-.092-.134-.273a.114.114 0 0 0-.02-.019l.033-.155s.213-.237.39-.446c.175-.21.235.209.417.362.18.15.12.386.12.386s.118.061.268.061c.153 0 .21.118.21.118l.301.12.3-.332s.057-.21.267-.21c.209 0 .033.27.033.422 0 .15.15 0 .565-.18.418-.176.236-.149.627-.36.39-.21.18-.15.327-.269.154-.118.27-.238.27-.238l.328.213.362-.062.36-.21v.272s-.237.3-.091.505c.151.211.178.15.092.42-.092.27-.033.27 0 .422.023.11.03.125.031.19 1.359-4.458.946-9.444-1.561-13.798a17.252 17.252 0 0 0-4.577-5.198c.053-.668.093-1.33.121-1.99a18.986 18.986 0 0 1 5.92 6.342 19.03 19.03 0 0 1 2.552 9.546l.002-.246c5.012 2.673 7.9 5.366 7.37 7.36-.845 3.155-10.02 3.533-21.661 1.202-3.811 11.273-8.724 19.05-11.871 18.207-1.985-.534-2.868-4.391-2.668-10.094.068.036.137.078.202.112a18.987 18.987 0 0 1-6.957-6.975 19.075 19.075 0 0 1-2.514-8.313c.553.289 1.115.565 1.686.843a73.676 73.676 0 0 0 6.348 2.671h-.006l.006.115-.312.554-.29.181.08.131.051.263h-.16v.578c0 .21.422.289.422.289l-.13.082s.027.128.157.34c.131.213.235.398.289.577.053.184.13.705.13.705s.344.578.5.82c.158.233.473.551.604.814.13.263.419.13.968.263.552.13.784.315.784.315s.29.234.475.342c.181.101.365.101.863.101.477 0 .166.028.748.119l.094.013c.699.102.146.052.812.358l.027.013.226.098.057.031a.252.252 0 0 0-.004-.007zm-.078-.064c.034.005.059.03.078.064a1.674 1.674 0 0 0-.053-.024c-.044-.025-.076-.048-.025-.04zm14.45-1.53c.046-.018-.066-.124-.231-.253.233.038.467.066.7.1.231.034.47.063.702.093l-.022.012c-.288.158-.445.238-.63.238h-.055c-.187.005-.437.023-.627 0-.208-.027.027-.133.162-.19zm-8.42-12.52l-.028-.032s.044.003.028.032zm6.489 4.114s-.06.375-.06.531c0 .155.124.217.124.498 0 .143-.053.26-.097.342a3.8 3.8 0 0 0-.112-.023s-.118.227-.159.43a.4.4 0 0 1-.202.272s-.134-.013-.278-.016c.178-.62.346-1.24.513-1.853l.036-.15h.04zm-.899 2.95c.044.182.044.27.044.27s-.019.054-.05.123a115.7 115.7 0 0 1-.08-.216l-.129.023.084-.284c.066.025.125.055.131.084zm2.07-5.768a.614.614 0 0 1 .245.527c0 .312-.017.131-.065.246-.05.12-.095.086-.377.086-.28 0-.019 0-.396-.02-.265-.01-.218-.024-.283-.064.096-.373.182-.75.274-1.128l.04.021c.296.131.461.252.561.332zM22.566 38.768c.03.016.045.023.002.004a.241.241 0 0 0-.002-.004zm8.177-25.547s.189-.106.282-.149c.098-.04 0-.051-.093-.118-.094-.067-.215.052-.215.052s-.053.054-.106.173a.112.112 0 0 1-.014.027c-.052.063-.108-.1-.12-.185-.014-.096-.362-.03-.35-.03.015 0 .082.174.082.174s.028.163.028.229c0 .068 0 .186.053.268.053.082.2.203.2.203l.107-.068.038-.028.163-.269.134-.12zM28.6 12.03s.022-.19.127-.166c.105.018.21-.254.21-.254s-.086-.167-.189-.167c-.106 0-.336.022-.336.022l-.064-.128s-.126-.021-.295.042c-.17.064-.212-.085-.212-.085l-.021-.253-.233.064-.168-.148s-.062-.127.042-.127c.103 0 .25.022.25.022l.212-.148-.084-.167.146-.167s-.293-.151-.358-.04c-.063.102-.296.188-.296.188s.023-.064-.103-.233c-.124-.17.062-.253-.212-.19a.983.983 0 0 0-.37.177c-.06.041-.093.075-.093.075s-.295.062-.312.168c-.024.102.357.168.357.168s.02-.03.048-.056c.055-.06.156-.144.227-.07.103.104.187.233.187.233l-.399.21-.015-.014-.197-.156h-.398l-.189.084-.38.043s.065.188.065.295c0 .108-.168.213-.168.213l-.225-.02-.029-.002-.233.167s-.252.022-.357.103a.098.098 0 0 1-.054.028c-.097.026-.198-.04-.198.1 0 .168.02.253-.103.275a1.526 1.526 0 0 1-.1.02l-.3.065s-.127.062-.232.168c-.102.102-.337.168-.337.168l-.034-.01-.386-.077-.546.234-.015.033-.112.264-.359.042s-.296.147-.315.251c-.01.053-.067.102-.117.138a.53.53 0 0 1-.093.053s-.21.084-.316.166c-.104.083-.232.25-.232.25l-.087.191.15.213-.337.04.04.168c.168.168.275.252.379.168.103-.087.04-.15.166-.19.074-.028.208-.072.324-.114.084-.03.16-.058.202-.077.104-.04.274-.188.399-.188.128 0 .252-.021.252-.021l.05-.04.286-.234.337.15.275-.041s0 .069.049.122c.02.018.043.033.078.044.124.042.314.042.314.042s.104-.149.253-.149h.376l.043-.189.237.11.034.017.19.147s-.084.022.126.106c.128.05.247.033.323.01.046-.016.078-.033.078-.033l.359.084s.022-.337-.085-.337c-.108 0-.314-.104-.314-.104l.231-.084.252-.042.064.275.399-.128-.063-.232.021-.36.378.063.023.252s.073.034.155.051c.089.025.181.028.181-.051 0-.148-.084-.252.021-.252.105 0 .317-.063.317-.063l.102-.15.15-.338.165.255.233-.149-.043-.213.504-.233s.298-.042.425-.042c.124 0 .166-.038.166-.038s.084-.17-.042-.17c-.12.005-.222-.097-.222-.097zm-5.029 8.165l-.21.102.485.234.238.012.178.01s.128-.213.15-.422c.01-.1.034-.14.072-.171.043-.033.108-.056.201-.125.166-.125.128-.168.086-.294-.034-.097-.2-.084-.287-.072l-.051.006-.35.174-.03.017-.167-.213-.233.064-.225.227c.031 0 .143.029.143.029s.06-.023.232 0c.167.022-.042.167-.042.167l-.336.085zm-.143-.45c-.008 0-.01.001-.006.005zm.944-4.486l-.288.019h-.008s-.056.3.008.479l.012.032a.5.5 0 0 0 .388.269c.081.012.174.009.287-.017.187-.04.244-.052.255-.052l-.025.01s.036-.01.025-.01l.13-.05.164-.066s.271-.166.271-.315c0-.15-.233-.104-.421-.104h-.014c-.173-.002-.159-.027-.238-.233-.085-.213-.085.124-.085.124s-.084-.019-.166-.21c-.086-.19-.105-.337-.105-.337l-.075.039-.237.128.062.127zm-.212 6.052s.085.104.212.277c.053.072.088.048.112 0 .034-.065.058-.17.116-.17.104 0 .023.17.149.15.126-.022.399-.023.399-.023l.008.009.181.203s.211-.105.232-.212c.022-.104.022-.104.19-.104.167 0 .105-.022.316-.19.21-.166-.064-.314-.233-.4-.17-.085-.024-.233-.024-.233l.024-.298s0-.102-.024-.253c-.021-.147-.063-.253-.084-.4-.021-.147-.167-.103-.167-.103v-.191s.315 0 .421-.042c.104-.04 0-.253 0-.253s-.25-.102-.44-.166c-.19-.062-.064-.104.252-.126.313-.02.042-.168.042-.168l-.252-.147s-.127.168-.337.253a.28.28 0 0 0-.099.058c-.075.073-.026.16-.091.258v.166l.091.157.056.098s-.02.087-.056.179c-.02.047-.04.096-.07.137-.085.127.041.276.041.276s0 .274-.041.424c-.041.147-.36-.129-.36-.129l-.063.36h-.292l.042.19.071.056.117.092.124.19-.24-.088-.114-.038zm-3.3-9.513l-.36.38s.314.063.422.04c.061-.012.233-.124.408-.246.128-.088.256-.174.35-.237.234-.149.317-.103.317-.103l.085.166-.507.297.59-.085.071-.066.227-.209.233-.275.357.022.134-.049.306-.117s.253-.166.361-.36c.081-.148.137-.063.238-.04.03.009.059.009.098-.002.166-.04.085-.19.085-.337 0-.071.099-.078.22-.076.122.003.263.014.329-.031.124-.087-.105-.253-.274-.297l-.055-.013c-.132-.032-.2-.047-.22-.176-.013-.077-.09-.101-.18-.097a.502.502 0 0 0-.24.075c-.124.086-.376.104-.295-.063.013-.027.034-.035.045-.053-.652.138-1.304.314-1.95.53.146-.004.208.007.304.007.126 0-.126.15-.126.15s-.378.128-.486.212l-.012.012c-.091.086-.05.222-.05.222h.05c.068-.002.19-.006.265-.022.103-.024.19-.064.46-.234.09-.053.14-.082.176-.099.08-.033.083-.015.182-.07.147-.089.04.23.04.23l.399-.148.324-.014.118-.007.126-.233-.244-.052-.134-.032.127-.127h.007c.058 0 .424.002.539.024.128.019 0 .167 0 .167l-.04.166-.147.275s-.19.023-.336.023h-.016c-.144.009-.3.168-.3.168l-.295.21h-.423l-.064.232-.337-.04s-.04-.105-.062-.252c-.023-.15-.167 0-.167 0s-.06.25-.203.358a.202.202 0 0 1-.093.042c-.208.042-.378.254-.378.254zm4.583-2.233c-.18.017-.36.034-.54.056.023.005.04.014.1.026.124.02.02.062.02.166 0 .068.03.096.134.115.053.01.125.019.227.034.295.04.102-.087.062-.338-.003-.022-.006-.043-.003-.06zm-1.135.248s.023-.043.04-.107c-.031.006-.06.009-.09.014.042.037.05.093.05.093zm2.411-.332a.312.312 0 0 0-.033.166c.022.188.063 0 .19-.042.076-.028.094-.056.108-.125-.083-.002-.172.001-.265.001zm-12.332 5.59l.265.017.336-.211.337.102-.19.088s-.186.272-.23.4c-.044.125.503.103.503.103s.147-.4.147-.569c0-.166.441-.275.441-.275l.125-.337.213.15s.124-.233.103-.337c-.024-.106-.4-.128-.4-.128l.376-.19.38.106-.086.736h.378l.084.129s-.525.293-.631.293c-.102 0-.337.277-.337.277l-.21.234s.086.126.251.168c.166.04.166.147.166.147s.233-.084.233-.211c0-.126-.085-.166-.085-.166l.315-.36c.124-.149.798-.443.925-.592.124-.147.04-.251.04-.251l.316-.19s.085-.4.126-.504c.04-.104.484-.317.8-.55.315-.233.358-.252.776-.359.423-.106.127-.15.104-.277-.02-.127-.357.17-.357.17l-.504-.15s.21 0 .42-.167c.213-.166.168-.041.315-.104.15-.062.105-.128.105-.128h.232s.19-.187.296-.358c.104-.167.337-.486.337-.486s-.525.298-.632.338c-.102.04-.273-.04-.399-.04-.128 0-.314.21-.526.293-.21.087-.442.213-.442.213l-.313-.062-.252.102-.61.254s.103-.084.36-.233l.502-.297.4-.103.034-.206c-.16.086-.32.166-.483.259a17.673 17.673 0 0 0-4.054 3.261zM30.222 32.24a99.896 99.896 0 0 0 1.215-4.188c3.41-12.74 3.802-23.707.885-24.49-1.257-.338-2.924 1.273-4.687 4.23h-.056c1.976.047 3.933.4 5.793 1.044.035.61.038 1.173.036 1.627h.002c-.002.368-.006.662-.013.834-.057 1.6-.202 3.24-.413 4.891a1.024 1.024 0 0 0-.246-.053c-.226-.016-.232-.003-.229 0-.003-.003-.19-.16-.258-.28-.072-.12-.21-.21-.47-.297-.263-.09-.244.104-.244.104s-.243.172-.558.14c-.3-.035-.375.302-.38.328h-.001l-.226.194s-.122.21-.262.21a.862.862 0 0 0-.243.033s-.069.26-.069.4-.14.16-.14.16-.174.033-.296.087c-.121.05-.243.122-.366.19-.121.07-.07.123-.313.263-.243.138-.33.19-.33.19l-.33.07.17.174-.26.053s-.019.156.016.278c.033.122.3.14.3.14s-.174.14-.384.23c-.21.088-.21.12-.192.208.018.089.139.28.486.367.352.088.105-.017.26-.103.161-.09.33-.14.33-.14s.214.35.214.505c0 .156-.053.453-.034.56.017.104.19-.035.19-.035l-.156.173s.033.313.033.403c0 .088.31.033.31-.052 0-.086.171-.23.433-.244.26-.018.228-.051.228-.261 0-.21.051-.49.051-.49l.298-.087s.17-.128.282-.234a.557.557 0 0 0 .068-.08c.036-.056-.006-.112-.068-.166-.053-.044-.119-.09-.16-.128-.09-.088-.122-.366-.122-.542 0-.173 0-.104.02-.227.015-.111.146-.12.262-.148a.984.984 0 0 0 .032-.01c.122-.034.278-.242.504-.349.226-.108-.122-.122-.122-.122s.036-.19.07-.35c.034-.158.486.053.486.053l.175.207-.209.159-.24.363-.347.455.279.73s.241.121.398.102a.843.843 0 0 0 .435-.19c.045-.035.266-.097.51-.15l-.082.488c-.079.032-.168-.034-.366-.034-.272 0-.344.125-.59.149-.248.027-.1.198-.1.321s.346.272.346.272l-.271.173s-.125-.272-.368-.246c-.243.025-.148.345-.299.468-.146.124.1.498.1.498s-.178.02-.34.112c-.018.013-.037.022-.056.033-.171.122-.221.026-.221.026s-.1-.149-.221-.149c-.125 0-.301.197-.424.245-.125.049-.542 0-.542 0l-.273-.298-.226.226s-.196-.05-.32-.2c-.119-.15 0-.122-.026-.247-.023-.122-.073-.122-.073-.122l.123-.197.321-.199s.073-.443-.075-.64c-.15-.199-.15.197-.15.197l-.493.32.026.669-.1.296-.192-.047-.124.149s-.124-.075-.318-.149c-.2-.074-.545.246-.545.246l-.044.11-.079.185-.271-.05-.148.174h-.298c-.126 0-.049.221-.049.221s-.085.1-.181.136l-.043-.057c-.144-.02-.18 0-.268.072a.432.432 0 0 1-.158.068c-.07.016-.131.023-.131.023l-.126-.323s-.09-.165-.177-.035c-.091.128-.056.215-.056.215l.037.22-.18.017-.035-.01-.09-.027-.31-.188-.048-.027s-.215-.037-.176.105c.033.144.215.323.215.414 0 .012.005.018.011.024.054.063.313.044.313.159 0 .126-.165.27-.165.27s.127.106.127.27c0 .162-.037.395-.074.5-.035.108-.124.073-.16.182-.01.028-.028.057-.044.087-.056.094-.135.182-.135.182s-.27.072-.361.035c-.093-.035-.164-.165-.324-.197a.226.226 0 0 0-.088-.006c-.062.008-.073.041-.233-.067-.218-.145-.287-.198-.432-.252-.144-.05-.215-.179-.215-.179l-.066-.036a.604.604 0 0 0-.222-.089c-.09 0-.233.164-.233.164s.034.143 0 .323c-.033.179.034.27-.071.342-.106.072-.127.017-.144.163-.02.144.072.072-.071.216-.13.131-.07.128-.163.194-.012.006-.024.016-.035.024-.146.09-.198.072-.29.217a.82.82 0 0 0-.124.432c0 .125.393.574.393.574l.056.016c.062.02.163.063.163.147 0 .128-.148.181 0 .272.143.091.071.106.16.163.044.026.313.085.581.141.294.057.586.11.586.11l.198-.143h.341l.089-.307.27-.017.019-.29s-.035-.29.053-.29c.043 0 .175-.074.3-.149.124-.077.239-.157.239-.157s.068.015.161.027c.137.022.323.036.378-.01.091-.07.289-.36.289-.36s-.041-.23.005-.329c.014-.032.033-.047.065-.047.143 0 .487.019.594.126.106.106.374.25.484.233.094-.017.242-.112.35-.186l.044-.033c.039-.028.146-.102.262-.19l.008.013s.25.034.322.163c.072.125.107.36.072.502-.035.141.233.27.323.376.09.107.523.684.665.864.143.177.431.502.431.502l.144.344-.303.216s-.324-.018-.433-.055c-.107-.036-.196.072-.196.072s-.074-.036-.234-.178c-.162-.145-.052.018-.251.127-.197.106.251.268.362.359.104.094.248.25.32.345.071.09.252-.033.252-.18 0-.145.018-.27.018-.27h.321l.2-.232.165-.143.072-.2-.127-.36s.22-.072.301-.072c.094 0 .18.27.18.27l.094.036s0-.216-.054-.306c-.053-.092-.341-.305-.341-.305s-.323-.126-.418-.197c-.089-.072-.299-.45-.411-.646-.106-.199-.033-.22-.053-.306-.019-.09-.2-.199-.271-.321-.072-.129-.05-.306-.05-.306s.162-.108.341-.216c.064-.038.095-.066.098-.081.072.074.259.29.259.421 0 .164.071.343.107.45.036.106.251.197.54.251.288.053.196.251.196.251s.27.324.303.54c.033.217.033.325.053.594.02.269.147.302.232.561.091.249.124.249.18.445.025.093.042.183.074.273-.177.66-.366 1.325-.565 1.993-.167.157-.288.727-.288.727s-.054.033-.132.052l-.373-.09c-.187-.204-.625-.285-.854-.435-.235-.16-.235-.5-.42-.658-.184-.16-.315-.078-.315-.078s-.523-.106-.63-.237a7.431 7.431 0 0 0-.225-.26c-.065-.078-.118-.132-.118-.132s.05-.05.118-.103c.078-.067.177-.144.249-.16.13-.028-.052-.292-.21-.554-.159-.263.42-.342.392-.473-.027-.129-.277-.132-.432-.205l-.014-.005c-.158-.081-.522 0-.522 0l-.5-.103s-.158.05-.288.103c-.047.019-.107.01-.17-.021a.635.635 0 0 1-.3-.3c-.071-.144-.22-.114-.368-.124a.474.474 0 0 1-.208-.059.328.328 0 0 0-.192-.056c-.116.004-.222.066-.36.085-.17.022-.398.078-.549.097a.395.395 0 0 1-.08.01c-.132 0-.291.103-.473.21-.184.104-.234-.29-.234-.29s-.056 0-.16-.019a2.608 2.608 0 0 1-.472-.139c-.393-.16-.211-.395-.211-.395s-.072.06-.221.19c-.05.042-.104.094-.17.152-.263.234-.341.34-.577.315-.233-.029-.366.079-.524.158-.145.074-.466.633-.513.724-3.126-1.077-6.216-2.34-9.008-3.825a32.836 32.836 0 0 1-.56-.31v.001a32.644 32.644 0 0 1-1.552-.94 19.162 19.162 0 0 1 1.97-5.504c-3.435.05-5.662.695-5.998 1.953-.78 2.927 8.89 8.065 21.596 11.483 1.444.369 2.857.712 4.237 1.02zM10.424 17.715a18.324 18.324 0 0 1 0 0zm-.035.064l-.002.005.002-.005zm15.971 9.077c-.087.034-.087.23-.087.23s.07.089.159.104a.512.512 0 0 0 .218-.014c.042-.01.095-.022.152-.038.173-.051.069-.14.104-.263.034-.123.034-.284.104-.406.07-.122-.142-.212-.142-.212s-.163.23-.222.322l-.006.012c-.052.086-.19.229-.28.265zm.289-.942c.094-.019.301-.075.346-.185.05-.14.033-.069.088-.229.054-.16-.142.053-.142.053l-.23.14-.062.137-.041.093s.014 0 .04-.01z"/></g></g>
</symbol>

<symbol id="carrot" viewBox="0 0 55 55">
<g><g><path d="M46.115 18.531c-.504-.78-1.086-1.5-1.758-2.172l-4.873-4.871a13.365 13.365 0 0 0-2.172-1.752c.702-1.578 2.082-4.92 2.634-7.89.192-1.031 1.53-1.325 2.148-.48 1.056 1.452 2.1 3.319 1.789 4.716l7.224-2.897c.978-.396 1.957.582 1.56 1.56l-2.904 7.216c1.398-.311 3.265.733 4.717 1.788.852.618.552 1.956-.48 2.148-2.97.552-6.313 1.932-7.885 2.634zm-3.943 15.166l-10.279-5.885 5.16 9.01-18.805 10.566-6.745-3.636 3.072 5.7-9.15 5.141a3.125 3.125 0 0 1-1.519.408c-2.148 0-3.894-2.388-2.658-4.59L13.02 29.468l8.347 5.063-5.808-9.575 5.352-9.509c2.01-3.576 5.67-5.477 9.373-5.477a10.65 10.65 0 0 1 7.573 3.144l4.872 4.871c4.5 4.506 4.039 11.74-.558 15.712z"/></g></g>
</symbol>

</svg>